# xmcd CD database file
#
# Track frame offsets:
#	150
#	25726
#	43404
#	73325
#	93860
#	132423
#	159609
#	182058
#	189249
#	205650
#	218489
#
# Disc length: 3066 seconds
#
# Revision: 0
# Processed by: cddbd v1.5.1PL0 Copyright (c) Steve Scherf et al.
# Submitted via: CDex 1.50beta10
#
DISCID=990bf80b
DTITLE=Mizuyo Komiya - Pacific Moon ±m
DYEAR=1999
DGENRE=New Age
TTITLE0=Tsugaru Overtrue
TTITLE1=Mebae
TTITLE2=Sea Wind (Shiokazeni Fukarete)
TTITLE3=Spring Rain
TTITLE4=Akatombo
TTITLE5=Otsugaru Wave
TTITLE6=Aidama
TTITLE7=Moegi
TTITLE8=Akanegumo
TTITLE9=Ruri
TTITLE10=Kohaku
EXTD=YEAR: 1999
EXTT0=
EXTT1=
EXTT2=
EXTT3=
EXTT4=
EXTT5=
EXTT6=
EXTT7=
EXTT8=
EXTT9=
EXTT10=
PLAYORDER=
